<svg xmlns="http://www.w3.org/2000/svg" viewBox="0 0 231 231"><path d="M33.83,33.83a115.5,115.5,0,1,1,0,163.34,115.49,115.49,0,0,1,0-163.34Z" style="fill:#0df;"/><path d="m115.5 51.75a63.75 63.75 0 0 0-10.5 126.63v14.09a115.5 115.5 0 0 0-53.729 19.027 115.5 115.5 0 0 0 128.46 0 115.5 115.5 0 0 0-53.729-19.029v-14.084a63.75 63.75 0 0 0 53.25-62.881 63.75 63.75 0 0 0-63.65-63.75 63.75 63.75 0 0 0-0.09961 0z" style="fill:#85492C;"/><path d="M61.11,205.59l3.49,3.69-6.26,6.6A115.45,115.45,0,0,0,72,222.51v-22a115.19,115.19,0,0,0-10.85,5.1Z" style="fill:#efedee;"/><path d="M93.24,228.85V199l-4-4A114.43,114.43,0,0,0,72,200.49v22a114.43,114.43,0,0,0,21.28,6.34Z" style="fill:#ec0033;"/><path d="m159 222.51v-22a114.63 114.63 0 0 0-17.25-5.51l-4 4v29.86a114.16 114.16 0 0 0 21.25-6.35z" style="fill:#ec0033;"/><path d="m169.89 205.59-3.49 3.69 6.26 6.6a115.45 115.45 0 0 1-13.66 6.63v-22a115.19 115.19 0 0 1 10.85 5.1z" style="fill:#efedee;"/><path d="M115.5,219.62A28.5,28.5,0,0,1,87.25,195c2.93-.74,5.92-1.36,8.94-1.87a19.41,19.41,0,0,0,38.62,0c3,.51,6,1.13,8.94,1.87a28.49,28.49,0,0,1-28.25,24.63Z" style="fill:#f2ff05;"/><path d="m41.668 87.073c-9.2319-0.0231-11.63 6.5104 2.2676 17.66-14.015 1.1231-4.3662 16.457 4.875 24.66 4.0686 3.0199 6.4647 5.4657 5.5078 1.1348-1.2079-4.9178-1.8184-9.9634-1.8184-15.027 3.26e-4 -7.5692 1.2547-15.016 3.7883-22.183 0.57048-1.7876 1.0689-2.0306-0.37721-2.6839-5.5405-2.4478-10.375-3.5511-14.243-3.5608z" style="fill:none;"/><path d="m185.48 89.513c-2.4418-0.11189-5.4618 0.81187-9.5148 3.2121-1.314 0.81729-0.70075 1.995-0.32301 3.2653 3.194 10.982 3.8215 22.462 1.2538 33.628-0.31613 1.688-0.47649 3.569 2.6953 1.3516 7.7016-5.371 19.17-18.734 16.918-26.105-1.4251-3.9177-11.4-0.35546-11.4-0.35546s4.987-4.2755 5.3437-9.6191c0.20048-3.0057-1.5237-5.2189-4.9726-5.377z" style="fill:none;"/><path d="m91.689 36.108c-3.7298-7.3864-9.5859-10.504-17.578-6.7891-9.5194 4.5907-15.629 18.444-13.416 29.232 0 0-8.5511-4.9878-18.17-3.5625-19.623 8.094-1.4102 29.869 10.817 37.342 2.075 1.297 2.5792 1.7432 3.4291-0.37685 2.6746-6.5374 6.1886-12.722 11.297-17.709 4.1039 8.7427 14.629 4.1809 20.006-0.14062 4.4873 9.6838 10.377 6.3535 15.377 3.4785 4.0764 7.8829 10.756 7.25 17.631 0.0625 4.875 4.5625 14.713 4.1867 15.555-3.426 8.4753 2.6244 14.012 10.437 22.962-1.4764 8.8552 6.8221 14.407 16.853 17.122 27.51 0.34 1.554 1.175 0.85565 2.2212 0.44315 10.255-4.286 22.842-15.749 15.705-23.975-3.5623-3.5623-13.539-2.1387-13.539-2.1387s6.77-7.1233 9.2637-18.168c2.4936-11.043-23.514-4.9883-23.514-4.9883s7.4818-5.6993 12.113-13.537c4.6314-7.8378-2.4943-11.756-11.045-11.043-8.5496 0.71204-17.1 7.4805-17.1 7.4805s3.3946-7.8055-3.5625-12.826c-9.5935-6.9234-23.869 6.4121-23.869 6.4121-4.2562-26.835-24.872-6.386-31.707 8.1953z" style="fill:#633b1d;"/><path d="m83.527 103.98v10h10v-10h-10zm53.945 0v10h10v-10h-10z" style="fill:none;"/><path d="m56.621 94.906v11.688h5.3418v6.4922h5.3418v6.1055h5.3223v6.2324h26.846v-6.2324h5.3047v-6.1055h5.1445v-6.0039h11.154v6.0039h5.1446v6.1055h5.3066v6.2324h26.846v-6.2324h5.3203v-6.1055h5.3438v-6.4922h5.3418v-11.688z" style="fill:#000;"/><path d="m67.387 100.65v5.9394h5.1992v-5.9394zm5.1992 5.9394v6.4922h5.4238v-6.4922zm5.4238 0h5.1992v-5.9394h-5.1992zm5.1992 0v6.4922h5.4258v-6.4922zm5.4258 6.4922v6.1055h5.1426v-6.1055zm-10.625 0v6.1055h5.1445v-6.1055zm48.281-12.432v5.9394h5.1992v-5.9394zm5.1992 5.9394v6.4922h5.4238v-6.4922zm5.4238 0h5.1992v-5.9394h-5.1992zm5.1992 0v6.4922h5.4258v-6.4922zm5.4258 6.4922v6.1055h5.1426v-6.1055zm-10.625 0v6.1055h5.1445v-6.1055z" style="fill:#fff;"/><path d="m115.5 161.71c-8.24 0-14.46-4.15-19.19-11.25 3.37-2.44 6.51-4.57 10-6.79a5.25 5.25 0 0 1 5.48-0.17 28.19 28.19 0 0 1 3.68 2.75 28.19 28.19 0 0 1 3.68-2.75 5.25 5.25 0 0 1 5.48 0.17c3.52 2.22 6.66 4.35 10 6.79-4.74 7.1-11 11.25-19.19 11.25z" style="fill:#000;"/></svg>