<svg xmlns="http://www.w3.org/2000/svg" viewBox="0 0 231 231"><path d="M33.83,33.83a115.5,115.5,0,1,1,0,163.34,115.49,115.49,0,0,1,0-163.34Z" style="fill:#E6C117;"/><path d="m115.5 51.75a63.75 63.75 0 0 0-10.5 126.63v14.09a115.5 115.5 0 0 0-53.729 19.027 115.5 115.5 0 0 0 128.46 0 115.5 115.5 0 0 0-53.729-19.029v-14.084a63.75 63.75 0 0 0 53.25-62.881 63.75 63.75 0 0 0-63.65-63.75 63.75 63.75 0 0 0-0.09961 0z" style="fill:#e8bc86;"/><path d="m141.75 195a114.79 114.79 0 0 1 38 16.5 115.53 115.53 0 0 1-128.46 0 114.79 114.79 0 0 1 38-16.5l26.23 13 26.27-13z" style="fill:#2823C6;"/><polygon points="115.5 208.03 115.5 207.74 82.72 188.91 80.45 198.86 101.46 222.72" style="fill:#b8d0e0;"/><polygon points="115.5 208.03 115.5 207.74 148.28 188.91 150.55 198.86 129.54 222.72" style="fill:#b8d0e0;"/><path d="m30.622 70.381c2.0971-3.9374 4.6649-7.9604 7.6822-12.037 3.0172-4.0765 6.0987-7.6929 9.2229-10.817l22.897 22.897c-4.4402 4.4403-8.2278 9.5439-11.213 15.14z" style="fill:none;"/><path d="m160.58 70.423 22.907-22.897c3.1242 3.1242 6.2056 6.7406 9.2229 10.817 3.0065 4.0765 5.5744 8.0994 7.6715 12.037l-28.578 15.182c-2.9851-5.5958-6.7727-10.689-11.224-15.14z" style="fill:none;"/><path d="m92.411 15.247c3.8197-0.87736 7.6715-1.5407 11.534-1.9794 4.0765-0.46007 7.9282-0.69546 11.555-0.69546 1.53 0 3.1563 0.0428 4.8682 0.1391l1.851 22.255 5.767-21.57c3.1028 0.37449 6.0666 0.86666 8.8912 1.4658l-10.55 49.763c-1.9259-0.41729-3.702-0.70617-5.3176-0.87736-1.423-0.14979-3.2633-0.22468-5.5102-0.22468-2.2362 0-4.237 0.10699-5.981 0.29958-1.9473 0.22469-3.8732 0.55636-5.767 0.99504z" style="fill:#d6f740;"/><path d="m92.411 15.247c1.9152-0.43869 4.023-0.84526 6.3233-1.2304 2.065-0.34238 4.1514-0.62057 6.2698-0.84525l5.1785 50.565c-1.0913 0.10699-2.1827 0.25679-3.2954 0.43868-0.86665 0.14979-1.9152 0.36378-3.1349 0.64196z" style="fill:#516303;"/><path d="m91.72 97.36v11.4m47.56-11.4v11.4" style="fill:none;stroke-linecap:round;stroke-linejoin:round;stroke-width:7.9999px;stroke:#000;"/><path d="m115.68 160.64c7.08 0 13.11-4.93 15.46-11.84a2.14 2.14 0 0 0-1.51-2.6101 2.3 2.3 0 0 0-0.73995-0.0593h-26.42a2.12 2.12 0 0 0-2.31 1.9099 1.85 1.85 0 0 0 0.0593 0.73995c2.3401 6.9301 8.3802 11.86 15.46 11.86z" style="fill:#ff0000;"/></svg>