<svg xmlns="http://www.w3.org/2000/svg" viewBox="0 0 231 231"><path d="M33.83,33.83a115.5,115.5,0,1,1,0,163.34,115.49,115.49,0,0,1,0-163.34Z" style="fill:#40E83B;"/><path d="m115.5 51.75a63.75 63.75 0 0 0-10.5 126.63v14.09a115.5 115.5 0 0 0-53.729 19.027 115.5 115.5 0 0 0 128.46 0 115.5 115.5 0 0 0-53.729-19.029v-14.084a63.75 63.75 0 0 0 53.25-62.881 63.75 63.75 0 0 0-63.65-63.75 63.75 63.75 0 0 0-0.09961 0z" style="fill:#C7873A;"/><path d="m91.92 194.41a101.47 101.47 0 0 1 23.58 17.09 101.47 101.47 0 0 1 23.58-17.09c0.89 0.19 1.78 0.38 2.67 0.59a114.79 114.79 0 0 1 38 16.5 115.53 115.53 0 0 1-128.46 0 114.79 114.79 0 0 1 38-16.5c0.88-0.21 1.78-0.4 2.67-0.59z" style="fill:#590D00;"/><path d="m73.65 199.82c16.59 8.23 28.72 18.91 34.27 30.93a114.86 114.86 0 0 1-56.65-19.25 115.06 115.06 0 0 1 22.38-11.68z" style="fill:#FD1336;"/><path d="m60.63 205.85c12.35 5.94 21.93 13.44 27.59 21.91a114.7 114.7 0 0 1-36.95-16.26q4.53-3 9.36-5.65z" style="fill:#590D00;"/><path d="m157.35 199.82c-16.6 8.23-28.72 18.91-34.27 30.93a114.86 114.86 0 0 0 56.65-19.25 115.06 115.06 0 0 0-22.38-11.68z" style="fill:#FD1336;"/><path d="m170.37 205.85c-12.35 5.94-21.93 13.44-27.59 21.91a114.7 114.7 0 0 0 36.95-16.26q-4.53-3-9.36-5.65z" style="fill:#590D00;"/><path d="m115.5 51.75c-38.702 5.3101-54.215 18.038-59.863 35.101" style="fill:none;stroke-linecap:round;stroke-linejoin:round;stroke-width:12;stroke:#004E4C;"/><path d="m115.5 51.75c-7.8393 3.6337-5.5974 16.583-14.341 23.452" style="fill:none;stroke-linecap:round;stroke-linejoin:round;stroke-width:12;stroke:#004E4C;"/><path d="m111.35 48.614c-22.634-6.9181-42.457-3.1988-55.733 2.5105" style="fill:none;stroke-linecap:round;stroke-linejoin:round;stroke-width:12;stroke:#004E4C;"/><path d="m115.47 54.008c0.1965-6.7774-0.1436-26.309 0.05-38.184" style="fill:none;stroke-linecap:round;stroke-linejoin:round;stroke-width:12;stroke:#004E4C;"/><path d="m68.874 28.177c34.115-3.382 41.987 13.321 45.17 19.602" style="fill:none;stroke-linecap:round;stroke-linejoin:round;stroke-width:12;stroke:#004E4C;"/><path d="m116.49 48.69c2.8876-6.3019 10.358-21.518 43.469-22.326" style="fill:none;stroke-linecap:round;stroke-linejoin:round;stroke-width:12;stroke:#004E4C;"/><path d="m116.92 51.766c1.5094 6.3991 3.4988 15.595 10.088 23.058" style="fill:none;stroke-linecap:round;stroke-linejoin:round;stroke-width:12;stroke:#004E4C;"/><path d="m113.81 51.532c22.03-7.8674 46.709-7.3614 59.444-2.0465" style="fill:none;stroke-linecap:round;stroke-linejoin:round;stroke-width:12;stroke:#004E4C;"/><path d="m114.53 52.278c36.226 4.8583 52.414 17.092 59.373 33.347" style="fill:none;stroke-linecap:round;stroke-linejoin:round;stroke-width:12;stroke:#004E4C;"/><path d="m55.637 86.851c-4.1213 12.452-2.9877 27.213-1.777 43.084" style="fill:none;stroke-linecap:round;stroke-linejoin:round;stroke-width:12;stroke:none;"/><path d="m55.614 51.124c-13.422 5.5019-21.908 16.409-24.712 28.774-1.8322 8.4632-1.9809 18.156-1.6096 28.486" style="fill:none;stroke-linecap:round;stroke-linejoin:round;stroke-width:12;stroke:none;"/><path d="m173.26 49.486c24.917 10.399 26.707 36.537 27.209 59.62" style="fill:none;stroke-linecap:round;stroke-linejoin:round;stroke-width:12;stroke:none;"/><path d="m173.9 85.625c5.4042 12.625 5.2413 27.675 4.5745 43.58" style="fill:none;stroke-linecap:round;stroke-linejoin:round;stroke-width:12;stroke:none;"/><path d="m53.86 129.93c1.293 16.951 2.6738 35.169-2.1664 53.193" style="fill:none;stroke-linecap:round;stroke-linejoin:round;stroke-width:12;stroke:none;"/><path d="m29.292 108.38c0.6173 17.177 2.6722 36.119 0.8158 54.108" style="fill:none;stroke-linecap:round;stroke-linejoin:round;stroke-width:12;stroke:none;"/><path d="m200.47 109.11c0.3586 18.529-1.2751 36.94 1.9231 48.985" style="fill:none;stroke-linecap:round;stroke-linejoin:round;stroke-width:12;stroke:none;"/><path d="m178.48 129.2c-0.7279 17.362-2.0563 35.743 2.6011 53.099" style="fill:none;stroke-linecap:round;stroke-linejoin:round;stroke-width:12;stroke:none;"/><path d="m172.7 90.75h-6.54c-0.14-0.1-0.26-0.22-0.4-0.3-4.48-2.76-22.75-2.11-33.71 1.2-1 0.3-1.91 0.61-2.75 0.94-1.8937 0.79244-3.8739 1.3597-5.9 1.69-5.5051 0.79002-10.403 0.79002-15.908 0-2.0261-0.33034-4.0063-0.89756-5.9-1.69-0.84-0.33-1.76-0.64-2.75-0.94-11-3.31-29.23-4-33.71-1.2-0.13832 0.08869-0.2688 0.18906-0.39 0.3h-6.55c-1.1046 0-2 0.89543-2 2v4.66c-0.0013 0.98185 0.49088 1.8986 1.31 2.44l1.9 1.27c0.59238 0.38889 0.93475 1.0622 0.9 1.77-0.14175 5.4854 0.88072 10.939 3 16 3.58 8.38 16 10.9 24.93 10.9 2.6976 0.0771 5.3921-0.2361 8-0.93 4.35-1.43 8.24-7.36 10.45-12.42 1.7607-3.8506 2.7493-8.009 2.91-12.24 7.3e-4 -0.7138 0.38183-1.3731 1-1.73 3.2281-1.951 6.5798-1.951 9.8079 0 0.61817 0.3569 0.99927 1.0162 1 1.73 0.16067 4.231 1.1493 8.3894 2.91 12.24 2.21 5.06 6.1 11 10.45 12.42 2.6079 0.6939 5.3024 1.0071 8 0.93 8.92 0 21.35-2.52 24.93-10.9 2.1193-5.0614 3.1418-10.515 3-16-0.0348-0.70778 0.30762-1.3811 0.9-1.77l1.9-1.27c0.81913-0.54136 1.3113-1.4582 1.31-2.44v-4.6c0.0336-1.1048-0.83521-2.0274-1.94-2.06z" style="fill:#000;stroke-linecap:round;stroke-linejoin:round;stroke-width:2.5;stroke:#00ffdc;"/><path d="m100.19 152.09c2.8726 4.0616 9.8095 4.7232 15.119-0.45432 5.0656 4.5134 11.167 5.6898 15.495 0.31458" style="fill:none;stroke-linecap:round;stroke-linejoin:round;stroke-width:5.8949;stroke:#111;"/><path d="m109.67 135.53c-0.9758 0.0743-2.05 0.45327-3.1485 0.99414-4.3235 2.1399-7.3862 4.2557-10.639 7.1406-0.6251 0.5715 0.1168 0.77785 1.4238 0.87304 5.6967 0.0536 14.384 0.41404 15.098-0.875 1.9251-2.0788 1.7969-5.3303-0.1816-7.3008-0.701-0.67533-1.5769-0.90632-2.5527-0.83203zm11.656 0c-0.9758-0.0743-1.8517 0.1567-2.5527 0.83203-1.9785 1.9705-2.1067 5.222-0.1817 7.3008 0.7142 1.289 9.401 0.9286 15.098 0.875 1.307-0.0952 2.0489-0.30154 1.4238-0.87304-3.2524-2.8849-6.3151-5.0007-10.639-7.1406-1.0985-0.54087-2.1727-0.91985-3.1485-0.99414z" style="fill:none;"/></svg>