<svg xmlns="http://www.w3.org/2000/svg" viewBox="0 0 231 231"><path d="M33.83,33.83a115.5,115.5,0,1,1,0,163.34,115.49,115.49,0,0,1,0-163.34Z" style="fill:#B400C2;"/><path d="m115.5 51.75a63.75 63.75 0 0 0-10.5 126.63v14.09a115.5 115.5 0 0 0-53.729 19.027 115.5 115.5 0 0 0 128.46 0 115.5 115.5 0 0 0-53.729-19.029v-14.084a63.75 63.75 0 0 0 53.25-62.881 63.75 63.75 0 0 0-63.65-63.75 63.75 63.75 0 0 0-0.09961 0z" style="fill:#e6b876;"/><path d="m141.75 195a114.79 114.79 0 0 1 38 16.5 115.53 115.53 0 0 1-128.46 0 114.79 114.79 0 0 1 38-16.5l15.71 15.75h21z" style="fill:#fff;"/><path d="m115.45 211.34-10.55 10.54a2.51 2.51 0 0 1-3.5599 0 2 2 0 0 1-0.26999-0.30994l-18.48-25.4 5.8901-5.8899a2.52 2.52 0 0 1 3.5199-0.0791l23.49 21.14z" style="fill:#333;"/><path d="m115.45 211.34 10.55 10.54a2.51 2.51 0 0 0 3.5599 0 2 2 0 0 0 0.26999-0.30994l18.48-25.4-5.8901-5.8899a2.52 2.52 0 0 0-3.4699-0.089l-23.49 21.14z" style="fill:#333;"/><path d="m158.41 199.58-10.11-3.2401v29.93q5.1601-1.5299 10.11-3.51zm-75.82 26.66v-29.9l-10.1 3.2401v23.14c3.2901 1.3199 6.67 2.4999 10.1 3.5199z" style="fill:#333;"/><path d="m30.622 70.381c2.0971-3.9374 4.6649-7.9604 7.6822-12.037 3.0172-4.0765 6.0987-7.6929 9.2229-10.817l22.897 22.897c-4.4402 4.4403-8.2278 9.5439-11.213 15.14z" style="fill:#dd104f;"/><path d="m160.58 70.423 22.907-22.897c3.1242 3.1242 6.2056 6.7406 9.2229 10.817 3.0065 4.0765 5.5744 8.0994 7.6715 12.037l-28.578 15.182c-2.9851-5.5958-6.7727-10.689-11.224-15.14z" style="fill:#dd104f;"/><path d="m92.411 15.247c3.8197-0.87736 7.6715-1.5407 11.534-1.9794 4.0765-0.46007 7.9282-0.69546 11.555-0.69546 1.53 0 3.1563 0.0428 4.8682 0.1391l1.851 22.255 5.767-21.57c3.1028 0.37449 6.0666 0.86666 8.8912 1.4658l-10.55 49.763c-1.9259-0.41729-3.702-0.70617-5.3176-0.87736-1.423-0.14979-3.2633-0.22468-5.5102-0.22468-2.2362 0-4.237 0.10699-5.981 0.29958-1.9473 0.22469-3.8732 0.55636-5.767 0.99504z" style="fill:#f73b6c;"/><path d="m92.411 15.247c1.9152-0.43869 4.023-0.84526 6.3233-1.2304 2.065-0.34238 4.1514-0.62057 6.2698-0.84525l5.1785 50.565c-1.0913 0.10699-2.1827 0.25679-3.2954 0.43868-0.86665 0.14979-1.9152 0.36378-3.1349 0.64196z" style="fill:#dd104f;"/><path d="m133 108.17h14.17m-63.26 0h14.09m-20.69-8.93a21.31 21.31 0 0 1 27.29 0m21.8 0a21.31 21.31 0 0 1 27.29 0" style="fill:none;stroke-linecap:round;stroke-linejoin:round;stroke-width:4.8243px;stroke:#000;"/><polygon points="121.61 160.74 109.39 160.74 115.5 171.31" style="fill:#f73b6c;"/><path d="m132.64 144.06a34.42 34.42 0 0 1-34.24 0" style="fill:none;stroke-linecap:round;stroke-linejoin:round;stroke-width:5.9998px;stroke:#000;"/></svg>